<svg id="Layer_1" data-name="Layer 1" xmlns="http://www.w3.org/2000/svg" viewBox="0 0 109 39.52"><defs><style>.cls-1{fill:silver;}.cls-2{fill:#6c2167;}.cls-3{fill:#f3cbd3;}</style></defs><title>nx4_logo_2</title><rect class="cls-1" y="0.61" width="15.08" height="15.08"/><rect class="cls-1" x="30.16" y="23.53" width="15.08" height="15.08"/><rect class="cls-2" x="45.24" y="0.61" width="15.08" height="15.08"/><rect class="cls-3" x="15.08" y="0.61" width="15.08" height="15.08"/><rect class="cls-2" y="23.53" width="15.08" height="15.08"/><rect class="cls-3" x="45.24" y="23.53" width="15.08" height="15.08"/><path class="cls-2" d="M68.88,3.66h2.66l8.68,14.9,2.52,4.73h.14l-.11-1.54c0-.38-.07-1.16-.14-2.37s-.1-2.29-.1-3.27V3.66H85v23H82.32l-8.68-14.9L71.12,7H71l.11,1.68c.16,2,.24,3.81.24,5.35V26.64H68.88Z" transform="translate(-4.54 -3.66)"/><path class="cls-2" d="M94.81,14.89,101.1,3.66H98.37L95.16,9.78c-.52,1-1.07,2.05-1.65,3.29h-.14L91.56,9.78l-3.3-6.12H85.4l6.29,11.09L85,26.64h2.7l.22-.41,3.28-6,.31-.59,0-.07c.65-1.26,1.15-2.26,1.5-3h.14l.26.47c.09.15.15.28.2.37.7,1.24,1.21,2.18,1.54,2.83l3.53,6.4h2.87Z" transform="translate(-4.54 -3.66)"/><path class="cls-2" d="M113.54,20.35h-3.12v6.29H108V20.35H97.93V18.7l9.76-14.37h2.73v14h3.12Zm-5.53-2V11.39c0-.89.06-2.28.17-4.2H108c-.46.84-.83,1.46-1.08,1.86l-.74,1.22-5.56,8.05Z" transform="translate(-4.54 -3.66)"/><polygon class="cls-2" points="83.13 22.98 74.12 39.52 71.1 39.52 80.44 22.98 83.13 22.98"/><line class="cls-2" x1="87.16" y1="11.09" x2="80.44" y2="22.98"/><polyline class="cls-2" points="83.13 22.98 83.36 22.57 86.95 15.99 86.98 15.92 88.62 12.91"/></svg>